# xmcd
#
# Track frame offsets: 
#        150
#        30227
#        49315
#        70913
#        79147
#        100179
#        137182
#        144153
#
# Disc length: 2575 seconds
#
# Revision: 0
# Processed by: cddbd v1.5.2PL0 Copyright (c) Steve Scherf et al.
# Submitted via: ExactAudioCopyFreeDBPlugin 1.0
#
DISCID=660a0d08
DTITLE=Brokeback - Brokeback And The Black Rock
DYEAR=2013
DGENRE=Rock
TTITLE0=Will be Arriving
TTITLE1=The Wire, the Rag, and the Payoff
TTITLE2=Who is Bozo Texino?
TTITLE3=Tonight at Ten
TTITLE4=Gold!
TTITLE5=Don't Worry Pigeon
TTITLE6=Tonight at Eleven
TTITLE7=Colossus of Roads
EXTD=
EXTT0=
EXTT1=
EXTT2=
EXTT3=
EXTT4=
EXTT5=
EXTT6=
EXTT7=
PLAYORDER=
